<svg width="16" height="16" viewBox="0 0 16 16" fill="none" xmlns="http://www.w3.org/2000/svg">
<rect width="16" height="16" transform="matrix(-1 0 0 1 16 0)" fill="white"/>
<path fill-rule="evenodd" clip-rule="evenodd" d="M8.68518 13.4771L7.99994 12.3333L7.29752 13.4666C7.72167 13.7295 8.25712 13.7336 8.68518 13.4771ZM9.00515 4.3383C9.52049 3.98829 10.1938 3.66667 10.9279 3.66667C12.6115 3.66667 13.5996 4.90476 13.2702 6.60417C12.7063 9.51372 7.99994 12.3333 7.99994 12.3333C8.68518 13.4771 8.68492 13.4773 8.68518 13.4771L8.68785 13.4755L8.69223 13.4729L8.70606 13.4645C8.7175 13.4575 8.73332 13.4479 8.75326 13.4356C8.79314 13.4109 8.84953 13.3758 8.92026 13.3306C9.06159 13.2405 9.26079 13.1104 9.50016 12.9456C9.97708 12.6173 10.6226 12.1452 11.2912 11.5723C11.956 11.0026 12.6691 10.3117 13.2638 9.54218C13.8502 8.7835 14.3831 7.86978 14.5792 6.85789C14.803 5.7033 14.6018 4.55127 13.8963 3.66673C13.1862 2.77649 12.1052 2.33334 10.9279 2.33334C9.71211 2.33334 8.7015 2.90599 8.07453 3.36308C8.04928 3.38149 8.02442 3.39989 7.99994 3.41825C7.97546 3.39989 7.95059 3.38149 7.92534 3.36308C7.29838 2.90599 6.28777 2.33334 5.07199 2.33334C2.44191 2.33334 0.924643 4.76983 1.43224 6.91165C1.66499 7.8937 2.20418 8.78804 2.79167 9.53884C3.38733 10.3001 4.09133 10.9877 4.74639 11.5574C5.40477 12.1299 6.03662 12.6031 6.50285 12.9328C6.73679 13.0982 6.9311 13.2289 7.06884 13.3195C7.13776 13.3649 7.19266 13.4002 7.23144 13.425C7.24127 13.4312 7.25006 13.4368 7.25778 13.4417C7.26532 13.4465 7.27184 13.4506 7.27731 13.454L7.29072 13.4624L7.29496 13.4651L7.29752 13.4666C7.29777 13.4668 7.29752 13.4666 7.99994 12.3333C7.99994 12.3333 3.41377 9.49087 2.72964 6.60417C2.40024 5.21429 3.38843 3.66667 5.07199 3.66667C5.80611 3.66667 6.47939 3.98829 6.99472 4.3383C7.60984 4.75607 7.99994 5.21429 7.99994 5.21429C7.99994 5.21429 8.39004 4.75607 9.00515 4.3383Z" fill="#A5A5A5"/>
</svg>
